<svg width="36" height="36" viewBox="0 0 36 36" fill="none" xmlns="http://www.w3.org/2000/svg">
<path fill-rule="evenodd" clip-rule="evenodd" d="M36 0H0V36H36V0ZM8.80214 27.5129C11.2085 21.4851 13.9578 14.5982 24.2999 12.3C24.2999 12.3 12.2999 12.3 8.3999 23.4C8.3999 23.4 6.2999 21.3 6.2999 18.9C6.2999 16.5 8.6999 11.4 14.6999 10.2C16.4065 9.85867 18.3073 9.59016 20.1813 9.32543C24.8959 8.65944 29.4412 8.01735 30.2999 6.29999C30.2999 6.29999 26.6999 26.7 13.4999 26.7C13.0679 26.7 12.4679 26.544 11.8919 26.34L10.7519 29.1L8.4839 28.308C8.58973 28.045 8.6956 27.7798 8.80214 27.5129Z" fill="#54D8A3"/>
</svg>
